<?xml version="1.0" encoding="UTF-8"?>
<svg width="40" height="40" fill="none" viewBox="0 0 40 40" xmlns="http://www.w3.org/2000/svg">
 <path d="m11.25 23.125c-0.1236 0-0.2445 0.0367-0.3472 0.1053-0.1028 0.0687-0.1829 0.1663-0.2302 0.2805s-0.0597 0.2399-0.0356 0.3611c0.0241 0.1213 0.0837 0.2326 0.1711 0.32 0.0874 0.0875 0.1987 0.147 0.32 0.1711 0.1212 0.0241 0.2469 0.0117 0.3611-0.0356s0.2118-0.1274 0.2805-0.2302c0.0686-0.1027 0.1053-0.2236 0.1053-0.3472 0-0.1658-0.0658-0.3247-0.1831-0.4419-0.1172-0.1173-0.2761-0.1831-0.4419-0.1831z" stroke="#0069FF" stroke-linecap="round" stroke-linejoin="round" stroke-width="2"/>
 <path d="m20 23.75h2.5" stroke="#0069FF" stroke-linecap="round" stroke-linejoin="round" stroke-width="2"/>
 <path d="M27.5 23.75H30" stroke="#0069FF" stroke-linecap="round" stroke-linejoin="round" stroke-width="2"/>
 <path d="m11.25 33.125c-0.1236 0-0.2445 0.0367-0.3472 0.1053-0.1028 0.0687-0.1829 0.1663-0.2302 0.2805s-0.0597 0.2399-0.0356 0.3611c0.0241 0.1213 0.0837 0.2326 0.1711 0.32 0.0874 0.0875 0.1987 0.147 0.32 0.1711 0.1212 0.0241 0.2469 0.0117 0.3611-0.0356s0.2118-0.1274 0.2805-0.2302c0.0686-0.1027 0.1053-0.2236 0.1053-0.3472 0-0.1658-0.0658-0.3247-0.1831-0.4419-0.1172-0.1173-0.2761-0.1831-0.4419-0.1831z" stroke="#0069FF" stroke-linecap="round" stroke-linejoin="round" stroke-width="2"/>
 <path d="m20 33.75h2.5" stroke="#0069FF" stroke-linecap="round" stroke-linejoin="round" stroke-width="2"/>
 <path d="M27.5 33.75H30" stroke="#0069FF" stroke-linecap="round" stroke-linejoin="round" stroke-width="2"/>
 <path d="m35 23.75c0 1.3261-0.5268 2.5979-1.4645 3.5355-0.9376 0.9377-2.2094 1.4645-3.5355 1.4645h-20c-1.3261 0-2.5978-0.5268-3.5355-1.4645-0.93769-0.9376-1.4645-2.2094-1.4645-3.5355s0.52678-2.5979 1.4645-3.5355c0.93768-0.9377 2.2094-1.4645 3.5355-1.4645h20c1.3261 0 2.5979 0.5268 3.5355 1.4645 0.9377 0.9376 1.4645 2.2094 1.4645 3.5355z" stroke="#0069FF" stroke-linecap="round" stroke-linejoin="round" stroke-width="2"/>
 <path d="m35 33.75c0 1.3261-0.5268 2.5979-1.4645 3.5355-0.9376 0.9377-2.2094 1.4645-3.5355 1.4645h-20c-1.3261 0-2.5978-0.5268-3.5355-1.4645-0.93769-0.9376-1.4645-2.2094-1.4645-3.5355s0.52678-2.5979 1.4645-3.5355c0.93768-0.9377 2.2094-1.4645 3.5355-1.4645h20c1.3261 0 2.5979 0.5268 3.5355 1.4645 0.9377 0.9376 1.4645 2.2094 1.4645 3.5355z" stroke="#0069FF" stroke-linecap="round" stroke-linejoin="round" stroke-width="2"/>
 <path d="m38.533 20c0.2811-1.1934 0.2888-2.4348 0.0226-3.6316-0.2663-1.1968-0.7996-2.3179-1.5601-3.2796-0.7605-0.9616-1.7285-1.7389-2.8317-2.2738s-2.3131-0.8135-3.5391-0.815c-1.6466-4.8e-4 -3.2541 0.5026-4.6067 1.4417-0.3181-1.7365-1.0005-3.3858-2.0022-4.8395-1.0016-1.4537-2.2998-2.6787-3.8091-3.5944-1.5092-0.91572-3.1953-1.5014-4.9473-1.7184-1.7519-0.21702-3.53-0.06048-5.2171 0.45929-1.6871 0.51978-3.2449 1.391-4.571 2.5564s-2.3902 2.5983-3.1225 4.2046c-0.73226 1.6063-1.116 3.3495-1.1259 5.1148-0.0099 1.7654 0.35423 3.5127 1.0684 5.1272" stroke="#0069FF" stroke-linecap="round" stroke-linejoin="round" stroke-width="2"/>
</svg>
