<?xml version="1.0" encoding="UTF-8"?>
<svg width="48" height="48" fill="none" aria-hidden="true" viewBox="0 0 48 48" xmlns="http://www.w3.org/2000/svg">
 <path d="m30.698 46.5c-1.508-1.69-5.358-3-10.074-4.742-1.436-0.532-1.2-4.276-0.564-4.976 1.0109-1.0955 1.7789-2.3924 2.2535-3.8056s0.6452-2.9107 0.5005-4.3944c0-4.684-3.056-7.578-6.714-7.578s-6.716 2.894-6.716 7.578c-0.14441 1.4839 0.02647 2.9815 0.50143 4.3946 0.47497 1.4132 1.2433 2.71 2.2546 3.8054 0.634 0.7 0.87 4.444-0.564 4.976-4.718 1.746-8.566 3.052-10.076 4.742" stroke="#0069FF" stroke-linecap="round" stroke-linejoin="round" stroke-width="2"/>
 <path d="m28.5 25.5v9l9-9h6c0.7956 0 1.5587-0.3161 2.1213-0.8787s0.8787-1.3257 0.8787-2.1213v-18c0-0.79565-0.3161-1.5587-0.8787-2.1213s-1.3257-0.87868-2.1213-0.87868h-24c-0.7956 0-1.5587 0.31607-2.1213 0.87868s-0.8787 1.3257-0.8787 2.1213v10.5" stroke="#0069FF" stroke-linecap="round" stroke-linejoin="round" stroke-width="2"/>
 <path d="m25.5 9 4.5 4.5-4.5 4.5" stroke="#0069FF" stroke-linecap="round" stroke-linejoin="round" stroke-width="2"/>
 <path d="m36 13.5h4.5" stroke="#0069FF" stroke-linecap="round" stroke-linejoin="round" stroke-width="2"/>
</svg>
